<?xml version="1.0" encoding="UTF-8" standalone="no"?>
<!-- Created with Inkscape (http://www.inkscape.org/) -->

<svg
   xmlns:dc="http://purl.org/dc/elements/1.1/"
   xmlns:cc="http://creativecommons.org/ns#"
   xmlns:rdf="http://www.w3.org/1999/02/22-rdf-syntax-ns#"
   xmlns:svg="http://www.w3.org/2000/svg"
   xmlns="http://www.w3.org/2000/svg"
   xmlns:sodipodi="http://sodipodi.sourceforge.net/DTD/sodipodi-0.dtd"
   xmlns:inkscape="http://www.inkscape.org/namespaces/inkscape"
   width="480"
   height="480"
   viewBox="0 0 480.00001 480.00001"
   id="svg2"
   version="1.1"
   inkscape:version="0.91 r13725"
   sodipodi:docname="hs.svg">
  <defs
     id="defs4" />
  <sodipodi:namedview
     id="base"
     pagecolor="#ffffff"
     bordercolor="#666666"
     borderopacity="1.0"
     inkscape:pageopacity="0.0"
     inkscape:pageshadow="2"
     inkscape:zoom="1.30625"
     inkscape:cx="240"
     inkscape:cy="240"
     inkscape:document-units="px"
     inkscape:current-layer="layer1"
     showgrid="false"
     units="px"
     inkscape:window-width="1301"
     inkscape:window-height="744"
     inkscape:window-x="65"
     inkscape:window-y="24"
     inkscape:window-maximized="1" />
  <metadata
     id="metadata7">
    <rdf:RDF>
      <cc:Work
         rdf:about="">
        <dc:format>image/svg+xml</dc:format>
        <dc:type
           rdf:resource="http://purl.org/dc/dcmitype/StillImage" />
        <dc:title></dc:title>
      </cc:Work>
    </rdf:RDF>
  </metadata>
  <g
     inkscape:label="Layer 1"
     inkscape:groupmode="layer"
     id="layer1"
     transform="translate(0,-572.3621)">
    <path
       style="fill:#000000;fill-rule:evenodd;stroke:#000000;stroke-width:1.05751228px;stroke-linecap:butt;stroke-linejoin:miter;stroke-opacity:1"
       d="m 181.47002,815.34529 -1.61917,-12.95327 c -9.13331,-3.98756 -15.98112,-19.4029 -21.04903,-43.71724 -10.19992,22.27911 -31.04359,-4.70269 -23.47783,-36.43105 -5.99283,-2.8979 -7.07561,-10.84367 -7.28627,-29.95441 l -5.66699,-3.23832 c 11.27477,1.80144 2.80495,-12.40221 0.80952,-21.04904 -2.2506,-19.16004 6.26355,-38.32006 20.23952,-57.48009 l 22.6682,-20.23947 c 1.31354,-2.81045 1.28879,-5.72093 0.80963,-8.09578 3.81255,1.57518 5.03429,-0.30393 4.85747,-4.0479 10.47159,14.68503 18.16436,7.96857 18.62025,-5.66705 4.77446,22.52339 21.58721,5.32087 38.85977,4.0479 16.00598,4.54637 27.68271,15.09973 35.62146,14.57241 24.25934,10.90384 42.2613,54.40418 47.76517,91.4824 l 4.04789,6.47662 c -0.65625,4.35455 -0.83598,9.66213 -4.85746,7.28622 7.40821,35.86546 0.90244,43.90299 -4.85748,53.43219 -4.85725,-0.89981 -10.55314,-0.68146 -12.95326,-4.85747 -1.09491,7.13209 0.40295,9.94288 3.23831,10.52452 -3.65903,5.05864 -6.8352,2.99517 -12.14367,32.38315 3.74356,-3.94452 6.90809,-6.15188 8.90536,-4.85747 11.98936,11.1977 14.11396,7.92711 20.23947,10.52452 7.82712,4.67663 14.70794,10.08927 18.62031,17.81074 2.19486,0.73761 4.65405,0.94655 7.28621,0.80957 2.70911,2.1615 3.87305,3.93672 4.85747,5.66705 20.97516,-7.60494 18.04357,0.8812 17.00115,8.09579 4.59344,13.40794 40.47201,4.91629 63.14714,5.66704 l 54.24178,25.09695 0.0761,195.1994 -449.325021,-0.1531 c -2.624639,-29.9336 4.225925,-59.86738 13.695526,-89.80107 18.77359,-16.3909 44.631328,-45.07154 74.301845,-59.6463 l 24.15614,-61.54996 c 0,0 -1.03039,-16.42098 23.10051,-24.73859 6.01684,-2.07393 9.31977,-5.01524 16.06996,-0.59889 z"
       id="path4316"
       inkscape:connector-curvature="0"
       sodipodi:nodetypes="ccccccccccccccccccccccccccccccccccsc" />
  </g>
</svg>
